<?xml version="1.0" encoding="utf-8"?>
<!-- Generator: Adobe Illustrator 20.1.0, SVG Export Plug-In . SVG Version: 6.00 Build 0)  -->
<svg version="1.1" id="Layer_1" xmlns="http://www.w3.org/2000/svg" xmlns:xlink="http://www.w3.org/1999/xlink" x="0px" y="0px"
	 viewBox="0 0 245.3 30.9" style="enable-background:new 0 0 245.3 30.9;" xml:space="preserve">
<style type="text/css">
	.st0{fill:#FFFFFF;}
</style>
<g>
	<path class="st0" d="M1,1v29.5h20.9V1H1z M11.4,29.9c-0.9,0-1.6-0.7-1.6-1.6s0.7-1.6,1.6-1.6c0.9,0,1.6,0.7,1.6,1.6
		C13,29.2,12.3,29.9,11.4,29.9L11.4,29.9z M19.5,25.9H3.4V3.4h16.1V25.9z M17.1,13.9c0,2.7-1.9,5-4.4,5.5v-2.6c1.2-0.5,2-1.6,2-3
		c0-0.9-0.4-1.7-0.9-2.2v1.6l-1.1,1.9h-2.3l-1.1-1.9v-1.6c-0.6,0.6-0.9,1.4-0.9,2.2c0,1.3,0.8,2.5,2,3v2.6C7.9,18.8,6,16.6,6,13.9
		c0-3.1,2.5-5.6,5.6-5.6C14.6,8.3,17.1,10.8,17.1,13.9L17.1,13.9z"/>
	<g>
		<path class="st0" d="M44.5,27.3h-3.1c-0.6,0-1.1-0.2-1.3-0.7l-5.8-8.1c-0.2-0.3-0.4-0.5-0.6-0.6c-0.2-0.1-0.5-0.2-1-0.2h-2.3v9.6
			H27V3.9h6.7c1.5,0,2.8,0.2,3.9,0.5c1.1,0.3,2,0.7,2.7,1.3C41,6.3,41.6,7,41.9,7.8c0.3,0.8,0.5,1.7,0.5,2.7c0,0.8-0.1,1.6-0.4,2.3
			c-0.2,0.7-0.6,1.4-1.1,1.9c-0.5,0.6-1.1,1.1-1.8,1.5c-0.7,0.4-1.5,0.7-2.4,0.9c0.4,0.3,0.8,0.6,1.1,1.1L44.5,27.3z M33.6,15.2
			c0.9,0,1.7-0.1,2.4-0.3s1.2-0.5,1.7-0.9s0.8-0.9,1-1.4s0.3-1.2,0.3-1.8c0-1.3-0.4-2.4-1.3-3c-0.9-0.7-2.2-1-4-1h-3.3v8.5h3.2V15.2
			z"/>
		<path class="st0" d="M62,24.5v2.8H47.5V3.9H62v2.8H51v7.4h8.8v2.7H51v7.6L62,24.5L62,24.5z"/>
		<path class="st0" d="M73.4,3.9c1.5,0,2.8,0.2,3.9,0.5s2,0.8,2.7,1.5c0.7,0.6,1.3,1.4,1.6,2.3c0.4,0.9,0.5,1.9,0.5,3
			s-0.2,2.1-0.6,3c-0.4,0.9-0.9,1.7-1.7,2.4c-0.7,0.7-1.7,1.2-2.8,1.5c-1.1,0.4-2.4,0.5-3.8,0.5h-3.6v8.6h-3.5V3.9H73.4z M73.4,15.9
			c0.9,0,1.7-0.1,2.3-0.3c0.7-0.2,1.2-0.5,1.7-1c0.5-0.4,0.8-0.9,1-1.5s0.3-1.2,0.3-1.9c0-1.4-0.4-2.5-1.3-3.4
			c-0.9-0.8-2.2-1.2-4-1.2h-3.6v9.3H73.4z"/>
		<path class="st0" d="M103.6,27.3h-2.7c-0.3,0-0.6-0.1-0.7-0.2c-0.2-0.2-0.3-0.3-0.4-0.6l-2.1-5.4H87.4l-2.1,5.4
			c-0.1,0.2-0.2,0.4-0.4,0.6c-0.2,0.2-0.5,0.3-0.7,0.3h-2.7L90.8,4h3.5L103.6,27.3z M96.7,18.6l-3.5-9.1c-0.2-0.6-0.5-1.4-0.7-2.3
			c-0.1,0.5-0.2,0.9-0.4,1.3c-0.1,0.4-0.2,0.8-0.4,1.1l-3.4,9H96.7z"/>
		<path class="st0" d="M110,27.3h-3.5V3.9h3.5V27.3z"/>
		<path class="st0" d="M133.3,27.3h-3.1c-0.6,0-1.1-0.2-1.4-0.7l-5.8-8.1c-0.2-0.3-0.4-0.5-0.6-0.6s-0.5-0.2-1-0.2h-2.3v9.6h-3.5
			V3.9h6.7c1.5,0,2.8,0.2,3.9,0.5s2,0.7,2.7,1.3s1.2,1.3,1.6,2.1c0.3,0.8,0.5,1.7,0.5,2.7c0,0.8-0.1,1.6-0.4,2.3
			c-0.2,0.7-0.6,1.4-1.1,1.9c-0.5,0.6-1.1,1.1-1.8,1.5c-0.7,0.4-1.5,0.7-2.4,0.9c0.4,0.3,0.8,0.6,1.1,1.1L133.3,27.3z M122.4,15.2
			c0.9,0,1.7-0.1,2.4-0.3c0.7-0.2,1.2-0.5,1.7-0.9s0.8-0.9,1-1.4s0.3-1.2,0.3-1.8c0-1.3-0.4-2.4-1.3-3s-2.2-1-4-1h-3.3v8.5h3.2V15.2
			z"/>
		<path class="st0" d="M143.4,4.3c1.3,0,2.4,0.1,3.4,0.4s1.8,0.6,2.4,1.1c0.6,0.5,1.1,1.1,1.4,1.8c0.3,0.7,0.5,1.6,0.5,2.5
			c0,0.6-0.1,1.2-0.3,1.8s-0.5,1.1-0.9,1.6s-0.9,0.9-1.5,1.2c-0.6,0.4-1.2,0.6-2,0.8c1.8,0.3,3.2,0.9,4.2,1.8s1.5,2.2,1.5,3.7
			c0,1-0.2,1.9-0.5,2.6c-0.3,0.8-0.8,1.4-1.5,2c-0.7,0.5-1.5,1-2.4,1.2c-1,0.3-2.1,0.4-3.3,0.4h-7.5v-23L143.4,4.3L143.4,4.3z
			 M138.5,5.6V15h5c1.1,0,2-0.1,2.7-0.4s1.4-0.6,1.9-1.1c0.5-0.4,0.8-0.9,1.1-1.5c0.2-0.6,0.3-1.1,0.3-1.7c0-1.6-0.5-2.7-1.5-3.5
			s-2.5-1.2-4.5-1.2C143.5,5.6,138.5,5.6,138.5,5.6z M144.2,26c2,0,3.5-0.4,4.6-1.3c1-0.9,1.6-2.1,1.6-3.7c0-0.7-0.1-1.4-0.4-2
			c-0.3-0.6-0.7-1.1-1.2-1.5s-1.2-0.7-1.9-0.9c-0.8-0.2-1.6-0.3-2.6-0.3h-5.8V26H144.2z"/>
		<path class="st0" d="M165.8,26.1c1.1,0,2.1-0.2,3-0.6s1.6-0.9,2.2-1.6c0.6-0.7,1.1-1.5,1.4-2.4c0.3-0.9,0.5-1.9,0.5-3V4.3h1.7
			v14.2c0,1.3-0.2,2.5-0.6,3.6c-0.4,1.1-1,2.1-1.7,2.9c-0.8,0.8-1.7,1.5-2.7,1.9c-1.1,0.5-2.3,0.7-3.6,0.7s-2.6-0.2-3.6-0.7
			c-1.1-0.5-2-1.1-2.8-1.9s-1.3-1.8-1.7-2.9s-0.6-2.3-0.6-3.6V4.3h1.7v14.2c0,1.1,0.2,2.1,0.5,3s0.8,1.7,1.4,2.4
			c0.6,0.7,1.3,1.2,2.2,1.6C163.7,25.9,164.7,26.1,165.8,26.1z"/>
		<path class="st0" d="M200.4,15.8c0,1.8-0.3,3.4-0.8,4.8s-1.3,2.6-2.2,3.6c-1,1-2.1,1.8-3.5,2.3s-2.8,0.8-4.5,0.8H181v-23h8.4
			c1.6,0,3.1,0.3,4.5,0.8s2.5,1.3,3.5,2.3s1.7,2.2,2.2,3.6C200.1,12.4,200.4,14,200.4,15.8z M198.7,15.8c0-1.6-0.2-3-0.7-4.3
			c-0.4-1.3-1.1-2.3-1.9-3.2c-0.8-0.9-1.8-1.5-2.9-2c-1.1-0.5-2.4-0.7-3.8-0.7h-6.7v20.3h6.7c1.4,0,2.6-0.2,3.8-0.7
			c1.1-0.5,2.1-1.1,2.9-2c0.8-0.9,1.4-1.9,1.9-3.2C198.4,18.8,198.7,17.4,198.7,15.8z"/>
		<path class="st0" d="M225.1,15.8c0,1.8-0.3,3.4-0.8,4.8s-1.3,2.6-2.2,3.6c-1,1-2.1,1.8-3.5,2.3s-2.8,0.8-4.5,0.8h-8.4v-23h8.4
			c1.6,0,3.1,0.3,4.5,0.8s2.5,1.3,3.5,2.3s1.7,2.2,2.2,3.6S225.1,14,225.1,15.8z M223.4,15.8c0-1.6-0.2-3-0.7-4.3
			c-0.4-1.3-1.1-2.3-1.9-3.2c-0.8-0.9-1.8-1.5-2.9-2c-1.1-0.5-2.4-0.7-3.8-0.7h-6.7v20.3h6.7c1.4,0,2.6-0.2,3.8-0.7
			c1.1-0.5,2.1-1.1,2.9-2c0.8-0.9,1.4-1.9,1.9-3.2C223.2,18.8,223.4,17.4,223.4,15.8z"/>
		<path class="st0" d="M236.4,17.8v9.5h-1.7v-9.5l-8.5-13.5h1.5c0.2,0,0.3,0,0.4,0.1c0.1,0.1,0.2,0.2,0.2,0.3l6.6,10.6
			c0.1,0.2,0.3,0.5,0.4,0.7s0.2,0.5,0.3,0.7c0.1-0.2,0.2-0.5,0.3-0.7s0.2-0.5,0.4-0.7l6.6-10.6c0.1-0.1,0.1-0.2,0.2-0.3
			c0.1-0.1,0.2-0.1,0.4-0.1h1.5L236.4,17.8z"/>
	</g>
</g>
</svg>
